HIERARCHY
ROOT Hips
{
  OFFSET 7.333 -26.027 -164.856
  CHANNELS 6 Xposition Yposition Zposition Zrotation Xrotation Yrotation
  JOINT LeftUpLeg
  {
    OFFSET 10.092 0.000 0.000
    CHANNELS 3 Zrotation Xrotation Yrotation
    JOINT LeftLeg
    {
      OFFSET 0.000 -38.160 -0.000
    CHANNELS 3 Zrotation Xrotation Yrotation
      JOINT LeftFoot
      {
        OFFSET -0.000 -24.040 0.000
    CHANNELS 3 Zrotation Xrotation Yrotation
        End Site
        {
          OFFSET -0.000 0.000 12.945
        }
      }
    }
  }
  JOINT RightUpLeg
  {
    OFFSET -10.092 -0.000 0.000
    CHANNELS 3 Zrotation Xrotation Yrotation
    JOINT RightLeg
    {
      OFFSET 0.000 -33.046 0.000
    CHANNELS 3 Zrotation Xrotation Yrotation
      JOINT RightFoot
      {
        OFFSET 0.000 -22.031 -0.000
    CHANNELS 3 Zrotation Xrotation Yrotation
        End Site
        {
          OFFSET 0.000 -0.000 11.863
        }
      }
    }
  }
  JOINT Spine
  {
    OFFSET -0.000 16.511 0.000
    CHANNELS 3 Zrotation Xrotation Yrotation
    JOINT LeftShoulder
    {
      OFFSET 0 16.511 0
    CHANNELS 3 Zrotation Xrotation Yrotation
      JOINT LeftArm
      {
        OFFSET 16.337 0.000 0.000
    CHANNELS 3 Zrotation Xrotation Yrotation
        JOINT LeftForeArm
        {
          OFFSET 0.000 -24.030 0.000
    CHANNELS 3 Zrotation Xrotation Yrotation
          JOINT LeftHand
          {
            OFFSET 0.000 -17.629 -0.000
    CHANNELS 3 Zrotation Xrotation Yrotation
            End Site
            {
              OFFSET 0.000 -11.753 -0.000
            }
          }
        }
      }
    }
    JOINT RightShoulder
    {
      OFFSET 0 16.511 0
    CHANNELS 3 Zrotation Xrotation Yrotation
      JOINT RightArm
      {
        OFFSET -16.337 0.000 0.000
    CHANNELS 3 Zrotation Xrotation Yrotation
        JOINT RightForeArm
        {
          OFFSET -0.000 -19.534 0.000
    CHANNELS 3 Zrotation Xrotation Yrotation
          JOINT RightHand
          {
            OFFSET 0.000 -19.514 -0.000
    CHANNELS 3 Zrotation Xrotation Yrotation
            End Site
            {
              OFFSET 0.000 -13.010 -0.000
            }
          }
        }
      }
    }
    JOINT Neck
    {
      OFFSET -0.000 16.511 0.000
    CHANNELS 3 Zrotation Xrotation Yrotation
      JOINT Head
      {
        OFFSET -0.000 12.493 -0.000
    CHANNELS 3 Zrotation Xrotation Yrotation
        End Site
        {
          OFFSET -0.000 8.328 -0.000
        }
      }
    }
  }
}
MOTION
Frames: 12
Frame Time: 0.0333333
0 0 0 -1.253130e+00 -5.619500e-02 -1.040970e+01 1.176790e+00 1.115970e+01 -2.277960e-01 1.703300e+00 -1.138980e+01 5.648260e-01 0 0 1.000000e-06 2.697500e+00 1.305110e+01 -6.095820e-01 2.212540e+00 -1.598540e+01 1.335930e+00 0 0 0 -5.000000e-06 -1.000000e-06 -1.000000e-06 0 0 0 -4.190790e+00 -4.634210e+01 -9.639520e+01 1.078990e+02 -2.416490e+01 1.207390e+02 0 1.000000e-06 -1.000000e-06 0 0 0 2.065900e+01 -4.432470e+01 1.171170e+02 -1.039040e+02 -1.555400e+01 -1.388960e+02 0 0 1.000000e-06 -6.710200e-02 -1.402010e+00 -1.644000e-03 0 0 0 
0 0 0 -1.008520e+00 7.939260e-01 -1.031410e+01 4.887610e-01 1.066990e+01 -9.049900e-02 2.682660e+00 -1.251110e+01 6.858540e-01 0 0 0 1.982980e+00 1.215310e+01 -4.176280e-01 3.160650e+00 -1.552820e+01 1.368470e+00 0 0 0 5.000000e-06 1.000000e-06 0 0 0 0 2.234960e+00 -3.878600e+01 -8.595270e+01 1.157930e+02 -3.688680e+01 1.234990e+02 1.000000e-06 0 -1.000000e-06 0 0 0 1.023190e+01 -3.495490e+01 1.068190e+02 -1.124080e+02 -2.353750e+01 -1.399070e+02 0 -1.000000e-06 0 -6.345200e-02 -1.311290e+00 -1.452000e-03 0 0 1.000000e-06 
0 0 0 -9.944339e-01 8.837053e-01 -1.070077e+01 1.156630e-01 1.018634e+01 -2.045900e-02 3.228370e+00 -1.195330e+01 6.929607e-01 0 0 1.323489e-23 1.944470e+00 1.183867e+01 -3.990200e-01 2.974048e+00 -1.547210e+01 1.303994e+00 0 0 -2.845732e-08 2.121372e-07 8.169204e-08 4.974747e-06 0 0 0 4.136511e+00 -3.568221e+01 -8.191380e+01 1.197477e+02 -4.001785e+01 1.267907e+02 -3.166883e-08 5.797328e-07 -9.451380e-07 0 0 0 5.190922e+00 -3.078429e+01 1.003260e+02 -1.171870e+02 -2.711449e+01 -1.418203e+02 3.532731e-07 -4.940863e-07 -1.566310e-11 1.011476e-01 -1.367808e+00 2.466033e-03 0 0 -2.573171e-07 
0 0 0 -6.282923e-01 7.209504e-01 -8.028627e+00 3.838386e-01 1.021280e+01 -6.823600e-02 2.364065e+00 -1.152670e+01 5.484050e-01 0 0 -3.106697e-08 2.261219e+00 1.227220e+01 -4.809762e-01 2.036963e+00 -1.619242e+01 1.186503e+00 0 0 -2.791656e-08 3.076403e-07 9.400416e-08 -3.796028e-05 0 0 0 5.788222e-01 -4.030592e+01 -8.854499e+01 1.137581e+02 -3.438454e+01 1.223526e+02 1.323489e-23 NaN 8.024632e-07 0 0 0 6.965991e+00 -3.646269e+01 1.013433e+02 -1.134775e+02 -2.196884e+01 -1.432497e+02 NaN NaN 4.710010e-08 6.055646e-02 -1.467344e+00 1.544448e-03 0 0 7.208666e-08 
0 0 0 3.032140e-01 5.127136e-01 -1.176420e+01 -2.851169e+00 9.877737e+00 4.896050e-01 4.753380e+00 -1.082210e+01 3.651630e-01 0 0 1.330726e-07 -1.045027e+00 1.324929e+01 2.399298e-01 4.559960e+00 -1.722508e+01 1.050000e+00 0 0 2.336400e-09 -1.824280e-07 -4.183184e-08 -3.995708e-05 0 0 0 4.641726e+00 -4.330719e+01 -8.273822e+01 1.137100e+02 -2.707741e+01 1.273739e+02 -3.286452e-08 NaN 7.566654e-07 0 0 0 1.171228e+01 -4.923604e+01 1.054032e+02 -1.078720e+02 -1.797502e+01 -1.426165e+02 NaN NaN 1.585886e-07 -3.073480e-01 -7.900555e-01 -4.186607e-03 0 0 1.345039e-07 
0 0 0 -3.442260e-01 8.212775e-01 -1.319060e+01 -1.696960e+00 8.997460e+00 2.651420e-01 4.328860e+00 -9.887600e+00 4.558350e-01 0 0 NaN 1.883800e-02 1.119648e+01 -3.658000e-03 4.375640e+00 -1.504430e+01 1.142660e+00 0 0 -9.212895e-09 -1.661785e-07 -5.466397e-08 3.500000e-05 0 0 0 1.727998e+01 -4.515122e+01 -6.448283e+01 1.161814e+02 -2.269690e+01 1.338340e+02 -5.389617e-08 -3.320476e-09 NaN 0 0 0 3.777753e+00 -5.303080e+01 9.588702e+01 -1.094635e+02 -1.098162e+01 -1.560782e+02 -5.141395e-08 9.348299e-08 NaN -1.003050e-01 3.702640e-01 6.490000e-04 0 0 -1.052632e-07 
0 0 0 -3.618973e-01 8.380874e-01 -1.354007e+01 -1.347743e+00 8.698462e+00 2.035230e-01 4.098189e+00 -9.230716e+00 4.441607e-01 0 0 NaN 7.173127e-01 9.974400e+00 -1.242900e-01 3.596358e+00 -1.320950e+01 9.849530e-01 0 0 -4.266439e-09 8.310999e-07 1.555033e-07 -4.399638e-05 0 0 0 3.135644e+01 -3.934553e+01 -4.222018e+01 1.172794e+02 -1.887931e+01 1.387620e+02 -3.351459e-08 -7.420923e-07 NaN 0 0 0 -1.511362e+01 -5.092142e+01 7.377864e+01 -1.125718e+02 -5.849505e+00 -1.662889e+02 1.972292e-08 -2.066985e-07 6.486442e-08 -4.131737e-02 1.094850e+00 7.940000e-04 0 0 2.536478e-07 
0 0 0 9.762000e-02 2.724312e-01 -1.321397e+01 -2.265769e+00 9.723779e+00 3.838091e-01 4.915810e+00 -1.070311e+01 4.984196e-01 0 0 -4.927493e-08 -6.702098e-02 1.019754e+01 1.294223e-02 3.957471e+00 -1.275163e+01 8.582760e-01 0 0 -2.082948e-08 NaN 5.292166e-09 -3.300000e-05 0 0 0 3.892969e+01 -2.716724e+01 -2.328047e+01 1.120645e+02 -1.185093e+01 1.406143e+02 -4.542751e-08 NaN 1.737981e-08 0 0 0 -2.964381e+01 -3.946487e+01 5.323969e+01 -1.146586e+02 3.622168e+00 -2.832140e+01 5.767547e-08 NaN 1.533076e-07 -1.162834e-01 1.123074e+00 2.289654e-03 0 0 NaN 
0 0 0 6.671552e-01 -1.446303e-01 -1.357349e+01 -3.820750e+00 1.033050e+01 6.867762e-01 5.463799e+00 -1.025478e+01 3.029688e-01 0 0 -5.138709e-08 -1.830284e+00 1.075947e+01 3.424305e-01 5.054191e+00 -1.251399e+01 7.051742e-01 0 0 4.237304e-09 -1.062391e-07 3.027774e-08 4.400000e-05 0 0 0 4.019284e+01 -1.287500e+01 -6.864271e+00 1.025118e+02 -9.959130e+00 1.261875e+02 -5.327680e-08 -4.351740e-07 2.376501e-08 0 0 0 -3.549070e+01 -2.858647e+01 4.071460e+01 -1.115835e+02 1.083370e+01 NaN 2.209093e-08 -6.697181e-08 2.017778e-07 1.157027e-01 1.027498e+00 -2.087300e-03 0 0 NaN 
0 0 0 4.593406e-01 -6.624975e-02 -1.365095e+01 -4.237620e+00 1.043680e+01 7.690710e-01 6.563361e+00 -1.036990e+01 4.322061e-01 0 0 -6.956522e-08 -1.338240e+00 1.158950e+01 2.688930e-01 4.350248e+00 -1.384766e+01 7.282690e-01 0 0 1.004433e-07 1.366169e-06 2.352093e-07 -3.591752e-05 0 0 0 3.955774e+01 -1.793001e+00 6.452406e+00 9.324290e+01 -1.345347e+01 9.848040e+01 -4.931614e-08 NaN 1.285077e-07 0 0 0 -3.673981e+01 -2.072231e+01 3.334419e+01 -1.060090e+02 1.618684e+01 NaN 2.815348e-08 -2.421105e-07 NaN 1.091460e-01 1.077699e+00 -2.049144e-03 0 0 5.549653e-07 
0 0 0 6.995931e-01 6.389306e-01 -1.414903e+01 -4.169873e+00 9.054458e+00 6.572985e-01 6.334157e+00 -9.228203e+00 3.557560e-01 0 0 -5.111198e-08 -1.735603e+00 1.022011e+01 3.081430e-01 4.796404e+00 -1.253376e+01 6.714334e-01 0 0 NaN NaN NaN -1.999656e-05 0 0 0 3.670119e+01 6.717912e+00 1.783078e+01 8.814286e+01 -2.152591e+01 8.667280e+01 -1.726742e-07 NaN 1.128380e-07 0 0 0 -3.629505e+01 -1.587684e+01 2.919962e+01 -1.046181e+02 1.702964e+01 1.210748e+02 5.564760e-08 -2.000000e-07 2.563063e-07 1.521464e-02 1.447118e+00 -3.903912e-04 0 0 NaN 
0 0 0 6.271254e-01 7.071593e-01 -1.399888e+01 -3.765036e+00 8.492888e+00 5.563984e-01 6.274237e+00 -7.832411e+00 3.486495e-01 0 0 -6.193264e-08 -1.428521e+00 9.840301e+00 2.453494e-01 4.905037e+00 -1.193157e+01 7.236555e-01 0 0 NaN NaN NaN -2.292711e-05 0 0 0 3.554755e+01 8.951823e+00 2.107413e+01 8.578386e+01 -2.422500e+01 8.261260e+01 NaN 2.603488e-06 2.416706e-07 0 0 0 -3.521617e+01 -1.404259e+01 2.818810e+01 -1.050189e+02 1.702023e+01 1.262290e+02 1.301786e-07 NaN NaN 1.097951e-01 1.506853e+00 -2.878129e-03 0 0 NaN 
